<svg xmlns="http://www.w3.org/2000/svg" viewBox="0 0 512 512">
  <defs>
    <linearGradient id="bg" x1="0%" y1="0%" x2="100%" y2="100%">
      <stop offset="0%" style="stop-color:#4f46e5"/>
      <stop offset="100%" style="stop-color:#7c3aed"/>
    </linearGradient>
  </defs>
  <rect width="512" height="512" rx="96" fill="url(#bg)"/>
  <g transform="translate(256,240)" fill="none" stroke="white" stroke-width="18" stroke-linecap="round" stroke-linejoin="round">
    <path d="M-80,-100 L0,-140 L80,-100" />
    <path d="M-80,-100 L-80,60" />
    <path d="M80,-100 L80,60" />
    <path d="M-80,60 L80,60" />
    <path d="M-40,-60 L-20,-40 L-50,-20" />
    <path d="M30,-50 L50,-50 L50,-10 L30,-10 L30,-50" />
    <path d="M25,10 L55,10 L55,40 L25,40 Z" />
    <line x1="-30" y1="20" x2="15" y2="20" />
    <line x1="-30" y1="35" x2="5" y2="35" />
  </g>
  <circle cx="256" cy="380" r="8" fill="white"/>
  <circle cx="236" cy="380" r="8" fill="white"/>
  <circle cx="276" cy="380" r="8" fill="white"/>
</svg>
